<svg width="16" height="16" viewBox="0 0 16 16" fill="none" xmlns="http://www.w3.org/2000/svg">
<g id="Iconography - Caesarzkn">
<g id="Group">
<g id="Layer_65">
<path id="Path" d="M14.4733 13.5266C14.5995 13.6518 14.6705 13.8222 14.6705 14C14.6705 14.1777 14.5995 14.3481 14.4733 14.4733C14.3482 14.5995 14.1778 14.6705 14 14.6705C13.8222 14.6705 13.6518 14.5995 13.5267 14.4733L8 8.93998L2.47333 14.4733C2.34816 14.5995 2.17776 14.6705 2 14.6705C1.82224 14.6705 1.65184 14.5995 1.52667 14.4733C1.40046 14.3481 1.32947 14.1777 1.32947 14C1.32947 13.8222 1.40046 13.6518 1.52667 13.5266L7.06 7.99998L1.52667 2.47331C1.35756 2.3042 1.29152 2.05773 1.35341 1.82672C1.41531 1.59572 1.59575 1.41529 1.82675 1.35339C2.05775 1.29149 2.30423 1.35754 2.47333 1.52664L8 7.05998L13.5267 1.52664C13.7881 1.26523 14.2119 1.26523 14.4733 1.52664C14.7347 1.78806 14.7347 2.21189 14.4733 2.47331L8.94 7.99998L14.4733 13.5266Z" fill="#231F20"/>
</g>
</g>
</g>
</svg>
