<svg width="16" height="17" viewBox="0 0 16 17" fill="none" xmlns="http://www.w3.org/2000/svg">
<path fill-rule="evenodd" clip-rule="evenodd" d="M1.99999 2.8431H14C14.3682 2.8431 14.6667 2.54462 14.6667 2.17643C14.6667 1.80824 14.3682 1.50977 14 1.50977H1.99999C1.63181 1.50977 1.33333 1.80824 1.33333 2.17643C1.33333 2.54462 1.63181 2.8431 1.99999 2.8431ZM14.6667 13.5098C14.6667 13.878 14.3682 14.1764 14 14.1764H2C1.63181 14.1764 1.33333 13.878 1.33333 13.5098C1.33333 13.1416 1.63181 12.8431 2 12.8431H14C14.3682 12.8431 14.6667 13.1416 14.6667 13.5098ZM2 7.50977H14C14.3682 7.50977 14.6667 7.80824 14.6667 8.17643C14.6667 8.54462 14.3682 8.8431 14 8.8431H2C1.63181 8.8431 1.33333 8.54462 1.33333 8.17643C1.33333 7.80824 1.63181 7.50977 2 7.50977Z" fill="#231F20"/>
</svg>
